<svg width="36" height="37" viewBox="0 0 36 37" fill="none" xmlns="http://www.w3.org/2000/svg">
	<circle cx="18" cy="18.5" r="18" fill="#51BB7B"/>
	<circle cx="18" cy="18.5" r="17.5" stroke="black" stroke-opacity="0.1"/>
	<g clip-path="url(#clip0_323_2349)">
		<path
			d="M17.5543 12.42V9.09429C17.5543 8.86571 17.4057 8.66 17.2 8.56857C16.9943 8.47714 16.7429 8.53429 16.5829 8.69429L9.17714 16.1C8.38857 16.8886 8.01143 17.6543 8 18.4543C8 19.2543 8.36571 20.0086 9.14286 20.7857L16.5829 28.2257C16.6857 28.34 16.8343 28.3971 16.9829 28.3971C17.0514 28.3971 17.1314 28.3857 17.2 28.3286C17.4171 28.2371 17.5543 28.0314 17.5543 27.8029V24.4429C17.5543 24.2943 17.4857 24.1457 17.3829 24.0429L11.7714 18.4314L17.3829 12.82C17.4971 12.7171 17.5543 12.5686 17.5543 12.42ZM16.4114 24.6943V26.4429L10.9943 21.0257C10.9714 20.9914 10.9486 20.9571 10.9143 20.9229C10.7429 20.7514 10.2286 20.2371 10.9943 19.2771L16.4114 24.6943ZM16.4114 12.2029L10.48 18.1343C10.0229 18.5914 9.71428 19.0714 9.55428 19.54C9.26857 19.1629 9.13143 18.8086 9.13143 18.4657C9.14286 17.9857 9.41714 17.4714 9.97714 16.9114L16.4114 10.4771V12.2029Z"
			fill="white"/>
		<path
			d="M13.36 18.4429V18.4886C13.36 18.7286 13.5543 18.9229 13.7943 18.9229H22.2857C22.5257 18.9229 22.72 18.7286 22.72 18.4886V18.4429C22.72 18.2029 22.5257 18.0086 22.2857 18.0086H13.7943C13.5543 18.0086 13.36 18.2029 13.36 18.4429Z"
			fill="white"/>
		<path
			d="M14.9943 16.7857V16.8314C14.9943 17.0714 15.1885 17.2657 15.4285 17.2657H20.64C20.88 17.2657 21.0743 17.0714 21.0743 16.8314V16.7857C21.0743 16.5457 20.88 16.3514 20.64 16.3514H15.4285C15.1885 16.3514 14.9943 16.5457 14.9943 16.7857Z"
			fill="white"/>
		<path
			d="M19.0286 15.5971C19.2686 15.5971 19.4628 15.4029 19.4628 15.1629V15.1171C19.4628 14.8771 19.2686 14.6829 19.0286 14.6829H16.96C16.72 14.6829 16.5257 14.8771 16.5257 15.1171V15.1629C16.5257 15.4029 16.72 15.5971 16.96 15.5971H19.0286Z"
			fill="white"/>
		<path
			d="M16.96 22.2829H19.0286C19.2686 22.2829 19.4628 22.0886 19.4628 21.8486V21.8029C19.4628 21.5629 19.2686 21.3686 19.0286 21.3686H16.96C16.72 21.3686 16.5257 21.5629 16.5257 21.8029V21.8486C16.5257 22.0886 16.72 22.2829 16.96 22.2829Z"
			fill="white"/>
		<path
			d="M15.4285 20.6029H20.64C20.88 20.6029 21.0743 20.4086 21.0743 20.1686V20.1229C21.0743 19.8829 20.88 19.6886 20.64 19.6886H15.4285C15.1885 19.6886 14.9943 19.8829 14.9943 20.1229V20.1686C14.9943 20.4086 15.1885 20.6029 15.4285 20.6029Z"
			fill="white"/>
		<path
			d="M27.0171 16.1457L19.5771 8.70571C19.4171 8.54571 19.1771 8.48857 18.96 8.58C18.7429 8.67143 18.6057 8.87714 18.6057 9.10571V12.4771C18.6057 12.6257 18.6743 12.7743 18.7771 12.8771L24.3886 18.4886L18.7771 24.1C18.6629 24.2029 18.6057 24.3514 18.6057 24.5V27.8257C18.6057 28.0543 18.7429 28.26 18.96 28.3514C19.0286 28.3857 19.1086 28.3971 19.1771 28.3971C19.3257 28.3971 19.4629 28.34 19.5771 28.2371L26.9829 20.8314C27.7714 20.0429 28.1486 19.2771 28.16 18.4771C28.16 17.6771 27.7943 16.9229 27.0171 16.1457ZM19.7486 12.2257V10.4771L25.1657 15.8943C25.1886 15.9286 25.2114 15.9629 25.2457 15.9971C25.4171 16.1686 25.9314 16.6829 25.1657 17.6429L19.7486 12.2257ZM26.1714 20.0086L19.7371 26.4429V24.7286L25.6686 18.7857C26.1257 18.3286 26.4343 17.8486 26.5943 17.38C26.88 17.7571 27.0171 18.1114 27.0171 18.4543C27.0057 18.9343 26.7314 19.4486 26.1714 20.0086Z"
			fill="white"/>
	</g>
	<defs>
		<clipPath id="clip0_323_2349">
			<rect width="20.2286" height="20" fill="white" transform="translate(8 8.5)"/>
		</clipPath>
	</defs>
</svg>
